PathFileType	4	(X/Y/Z)	55_2_115_p1_0-264_filt_butterworth.trc
DataRate	CameraRate	NumFrames	NumMarkers	Units	OrigDataRate	OrigDataStartFrame	OrigNumFrames
48.0	48.0	6	27	m	48.0	231	264
Frame#	Time	RHip			RKnee			RAnkle			RBigToe			RSmallToe			RHeel			LHip			LKnee			LAnkle			LBigToe			LSmallToe			LHeel			Neck			Head			Nose			RShoulder			RElbow			RWrist			RThumb			RIndex			RPinky			LShoulder			LElbow			LWrist			LThumb			LIndex			LPinky			
		X1	Y1	Z1	X2	Y2	Z2	X3	Y3	Z3	X4	Y4	Z4	X5	Y5	Z5	X6	Y6	Z6	X7	Y7	Z7	X8	Y8	Z8	X9	Y9	Z9	X10	Y10	Z10	X11	Y11	Z11	X12	Y12	Z12	X13	Y13	Z13	X14	Y14	Z14	X15	Y15	Z15	X16	Y16	Z16	X17	Y17	Z17	X18	Y18	Z18	X19	Y19	Z19	X20	Y20	Z20	X21	Y21	Z21	X22	Y22	Z22	X23	Y23	Z23	X24	Y24	Z24	X25	Y25	Z25	X26	Y26	Z26	X27	Y27	Z27	
231	4.8125	0.3486708459458075	0.5367415552138027	0.7056611346941112	0.3534158264196957	0.5727296375236715	1.1753836475681885	0.3623285257075505	0.6141288606515973	1.6345780759479813	0.2821736841381544	0.41893764571658737	1.6311768287210557	0.35212447457634827	0.4225367666583054	1.6331939002389702	0.3482985743766021	0.704839795750457	1.7200559117578418	0.15580213036711935	0.548281590983392	0.7082944504194721	0.1183446230550538	0.5930861755788852	1.1932402988324575	0.1227873659788055	0.6050559410556506	1.6096472449135444	0.13035405437225794	0.4343552733684442	1.6433657284196874	0.07810375897359854	0.4684725877990324	1.6493602228143673	0.14493072063424914	0.673240944025699	1.6959398025705448	0.24280455884420785	0.5703844921547342	0.2065615816460262	0.23980578309515746	0.5565601682320062	-0.04331232093786434	0.23567135470612446	0.5260799518314452	0.0836555273726137	0.39739707019739245	0.5847395603017946	0.29636675176807914	0.39067672342946835	0.504125052296703	0.5601558674107046	0.26747690349497755	0.34359911430318324	0.7305065042669852	0.16253870367967813	0.3402052081563921	0.7943242107628845	0.16439057823682673	0.3564595261326979	0.8251265336734657	0.19814235923674023	0.38587917212931766	0.8739013810987547	0.10112357863414069	0.6296617501372435	0.2947145254380772	0.10037964180036718	0.4924454638120121	0.5180098873526628	0.1565743204740743	0.37363977221978606	0.7191268597651925	0.17835740167250633	0.33979020047572533	0.7814401431626099	0.18462467802232627	0.3479099521793473	0.8316796541832902	0.17547827117685474	0.3813500666651616	0.8573341549395452
232	4.833333333333333	0.34893416815798706	0.5368841692612913	0.7057831085351423	0.35347380654059224	0.5728574658228749	1.1752728253157159	0.36240953660983005	0.6141011086874002	1.6353054380243208	0.28228530213357406	0.4191701033516818	1.6319279964703717	0.35209266617307555	0.4224981240585096	1.633243519295889	0.34828358833805867	0.7048301692279677	1.7200453879144777	0.1558012499777218	0.5482614757994732	0.7098614412203607	0.11812020662110373	0.5925997933748153	1.1923075301716313	0.12282408934364014	0.6050404086043435	1.6095822600375673	0.13056908010462426	0.4342348558950478	1.6431912574161707	0.07826067514264021	0.46758303772725474	1.6511707525132142	0.14496689389049086	0.6731810665220964	1.6959729775989878	0.24277805307558914	0.5703868721209769	0.20646185411412	0.2397972357718069	0.5565622685451073	-0.043309253073271894	0.23541968550730838	0.5254108605730174	0.08353940248906679	0.39739596373230435	0.5847808904911351	0.2963700011312155	0.3909902200000115	0.503648084742222	0.5598348041130625	0.2672516983383839	0.34349933631732177	0.7308549672994898	0.16332298542301255	0.34086746195347517	0.7959010094860214	0.16847245838520364	0.3653548666558659	0.8309844479154136	0.19823143666694765	0.3857436716360937	0.8726740452628828	0.10113431064011318	0.6294107179616307	0.2956617874765162	0.10036310074164176	0.4965153865151777	0.5194382484657906	0.1573043272127359	0.3727442637818842	0.7217909278601933	0.1805506861985096	0.34535603843191254	0.7822333413034651	0.18630083821615562	0.35227904521372344	0.8338769392034073	0.17614889305082226	0.38550485766567577	0.8603323087759158
233	4.854166666666667	0.34996099979429784	0.5369038004746761	0.7059220378479276	0.3534161859688097	0.5730200076127423	1.175348468067276	0.3624256691919376	0.6141407444031792	1.6356536873486256	0.2826324647268819	0.4197414268123118	1.6335162178785088	0.3521628978689436	0.42260270311142845	1.633531846550841	0.3482803968194027	0.7048120002697341	1.7200669284238264	0.1557240747276786	0.5482757140059733	0.7097597384812918	0.11779295270397755	0.59228159887063	1.1912081210100385	0.12275028522452104	0.6050476157131593	1.6098527043942965	0.13043484224729335	0.43350551272875765	1.6431119983516618	0.07836007054549093	0.4670850939948323	1.6522342195808504	0.14491493741571415	0.6731765470511057	1.6963294341203738	0.24275594601553327	0.5704081197235064	0.20643031362332037	0.23983331936751323	0.5567543834423774	-0.04327047305013756	0.2343092059814642	0.5223955235334935	0.0830929609579421	0.3974014828058697	0.584834794401041	0.296364591863957	0.3908902012718104	0.5040696071607862	0.5590690928055725	0.26690592737868046	0.34259787197768243	0.7305924018790212	0.16212842282145082	0.33676315198359763	0.7959495197368641	0.16917208285559476	0.3650604760154582	0.8304151914698301	0.1982239769159807	0.385478040293945	0.8721951678255726	0.10113773131392019	0.6293261851027173	0.2958657427047944	0.10031193886886061	0.4929928563667825	0.5199228468348245	0.15715505636192342	0.36937671892180046	0.7255471358586809	0.18116979500513794	0.3457676329778483	0.7820402143900447	0.18599281210504903	0.351762320257715	0.8349693664814335	0.17530211035944143	0.3808704970433757	0.8579584078403499
234	4.875	0.35152859170524964	0.5370051832767706	0.7058959457171505	0.3531990842042042	0.5731614036279438	1.1763298630245438	0.3624662829115701	0.6142791799051418	1.6355107687804664	0.28309497808788053	0.4204023351871822	1.6354400918620078	0.35249280699805946	0.4229897170923741	1.6348078731037887	0.34829930758662675	0.7047830815293981	1.7200996574226741	0.15575741927380904	0.5482200097684881	0.7086355421069966	0.11759050452985736	0.5922225902087648	1.190226016204741	0.12243127768810469	0.6050622620679332	1.611257901363143	0.13003645786085444	0.43295450862853946	1.6435507927511446	0.07837860764347271	0.4670609231524524	1.652446525431372	0.14458457333028382	0.6731784408900182	1.6979658122176209	0.24274295543150035	0.5704350547020095	0.20647062623424378	0.23989904632136913	0.5570660116351541	-0.04322482549907931	0.23271480981897014	0.5179737168891158	0.08246223064434315	0.39741282560621544	0.5848574396053349	0.2963637914148747	0.3900668454166607	0.5041646454370576	0.5576705852579927	0.2658516238582161	0.33961592474800395	0.7296029338326284	0.16095634231350991	0.33342049526986883	0.7957602231364004	0.16613962043656427	0.35645530009200566	0.8252780420402663	0.19814264042911034	0.3850265858025836	0.8722754616494987	0.10121053469662177	0.6293976391569877	0.2957949786955797	0.1002953521282327	0.48383599857058945	0.519908612905543	0.15660889437189462	0.3661904411698208	0.7277995920531624	0.18039228768937132	0.3394966218384945	0.7813133171290164	0.18421890395645182	0.34675526085585723	0.8346440610044837	0.17401739241635544	0.3680384320513097	0.8521866871843834
235	4.895833333333333	0.35264292874967434	0.5372912043329658	0.7056471454863255	0.353004421075337	0.5733741045828057	1.1784717281864738	0.36267080212364267	0.6143941042024644	1.6361414599988855	0.28339237596427413	0.4207287645099447	1.6366806113537797	0.35293676200206703	0.4234175367864188	1.6367217237054437	0.3483148911415208	0.7047365704448119	1.7201004039125027	0.15586174204890624	0.5480342188537706	0.7072135181595625	0.11755556377372697	0.5922491066191818	1.1898946195140878	0.1219698972536067	0.6050587386989663	1.6133659542242953	0.1296085679170892	0.43288466594044545	1.6449231112861216	0.07836981022044388	0.4671745851406912	1.6523730160257701	0.14409397987045255	0.6731582870834439	1.7004454359285397	0.2427357060258688	0.5704459006265968	0.20651417250830129	0.23960879430020862	0.5563940277961398	-0.043246759914291326	0.23171714084001055	0.5149967773221764	0.08229332962012167	0.3974285742988491	0.5848300494715621	0.29635999265259994	0.3876551188346171	0.500445096720714	0.555579152570139	0.2642480083689753	0.3353094498764534	0.7278490709665719	0.16065992155556497	0.33287574834844436	0.7957885554270769	0.1618137326956095	0.34677844609595476	0.8205031549056713	0.19806224940188916	0.3845527706849419	0.8723984321080508	0.1013235573066438	0.6295201794144664	0.29575530452076165	0.10035882261226034	0.4742524732686529	0.5193753562871068	0.15631369841385975	0.36498564169776837	0.7273512825698383	0.1793583671730725	0.3296642299102617	0.7799961484494797	0.1812273632818267	0.33810647986610876	0.8333971171528751	0.173343798262121	0.35604701224895774	0.8475524574886169
236	4.916666666666667	0.35289750694813704	0.5374749687614208	0.7056779918442483	0.353104279031551	0.5736661366479533	1.1812945543817386	0.36295819420665515	0.6143233411381985	1.637753965069377	0.28339443551834165	0.42053181085969327	1.6368516330667842	0.35316350039906486	0.4235094645357208	1.6379864109136042	0.34829420452255005	0.7047053473889913	1.7199971905670308	0.1560023520927247	0.5477160935791597	0.7069011538866216	0.11748371735484497	0.592174806323679	1.1899575402469698	0.12165791617300159	0.6050284601660092	1.6147946715008397	0.12931807990230118	0.4329490869428516	1.6467016186216827	0.07837447323825146	0.46722874175078827	1.6523804469591106	0.1437694244848164	0.6731059963446131	1.7020847446631975	0.24272927975501235	0.570435236842636	0.206529420811154	0.2384528108729925	0.5533056469393467	-0.0434135084695277	0.23155822349903765	0.5143573480931706	0.08308271737144919	0.39744247209933065	0.5847671789966777	0.29634578200178985	0.3845803144566788	0.49181543390795246	0.5527934429535618	0.2631652304988864	0.33246123918808257	0.7256547512531166	0.16112420197853672	0.3325499000318785	0.7958206808363513	0.1588797014336693	0.342042424897579	0.8190992275597216	0.19806611534643054	0.3843586533019998	0.8721115210254733	0.1010802243085141	0.6293632312028552	0.29574675222710267	0.10052713942895032	0.4690086407404507	0.5185693211015643	0.15616633328833432	0.3649959116359591	0.7248171358123625	0.17896073541446975	0.321943417103984	0.7783470115710653	0.17842585098991787	0.3298356622858573	0.832704611028262	0.17335970429044373	0.35120238569101275	0.8453399812041972
